<svg xmlns="http://www.w3.org/2000/svg" width="28" height="28" viewBox="0 0 28 28">
    <g fill="none" fill-rule="evenodd">
        <circle cx="14" cy="14" r="14" fill="#009F30"/>
        <path fill="#FFF" fill-rule="nonzero" d="M12.902 7.601l.005-.022v9.368l-2.952-2.945a.766.766 0 0 0-.544-.223.765.765 0 0 0-.543.223l-.458.459a.76.76 0 0 0-.224.54c0 .205.079.398.223.542l5.048 5.048a.759.759 0 0 0 .542.223.759.759 0 0 0 .544-.223l5.048-5.048a.76.76 0 0 0 .223-.541.76.76 0 0 0-.223-.541l-.459-.459a.758.758 0 0 0-1.071 0l-2.968 2.979V7.59a.793.793 0 0 0-.786-.777h-.648c-.422 0-.757.365-.757.787z"/>
    </g>
</svg>
